<svg version="1.1" xmlns="http://www.w3.org/2000/svg" xmlns:xlink="http://www.w3.org/1999/xlink" viewBox="0 0 460 460" class="hospivision">
    <style>
        path { transition: ease-in-out fill 1s; }

        .blue path, .gpsih .blue path { fill: rgb(91, 192, 235); }
        .green path, .gpsih .green path { fill: rgb(57, 181, 74); }
        .yellow path, .gpsih .yellow path { fill: rgb(255, 196, 61); }

        .hospivision .blue path { fill: #5BC0EB; }
        .hospivision .green path { fill: #1098F7; }
        .hospivision .yellow path { fill: #1D68E5; }

        .ids .blue path { fill: #FFCA47; }
        .ids .green path { fill: #F4A321; }
        .ids .yellow path { fill: #EC7900; }

        .hospiperf .blue path { fill: #65BF85; }
        .hospiperf .green path { fill: #39B54A; }
        .hospiperf .yellow path { fill: #428C47; }

        @keyframes fade-blue-gpsih {
            0% {
                fill: transparent;
                stroke-opacity: 0;
            }

            30% {
                fill: rgb(91, 192, 235);
                stroke-opacity: 1;
            }
        }

        @keyframes fade-green-gpsih {
            0% {
                fill: transparent;
                stroke-opacity: 0;
            }

            30% {
                fill: rgb(57, 181, 74);
                stroke-opacity: 1;
            }
        }

        @keyframes fade-yellow-gpsih {
            0% {
                fill: transparent;
                stroke-opacity: 0;
            }

            30% {
                fill: rgb(255, 196, 61);
                stroke-opacity: 1;
            }
        }

        @keyframes fade-blue-hospivision {
            0% {
                fill: transparent;
                stroke-opacity: 0;
            }

            30% {
                fill: #5BC0EB;
                stroke-opacity: 1;
            }
        }

        @keyframes fade-green-hospivision {
            0% {
                fill: transparent;
                stroke-opacity: 0;
            }

            30% {
                fill: #1098F7;
                stroke-opacity: 1;
            }
        }

        @keyframes fade-yellow-hospivision {
            0% {
                fill: transparent;
                stroke-opacity: 0;
            }

            30% {
                fill: #1D68E5;
                stroke-opacity: 1;
            }
        }

        @keyframes fade-blue-ids {
            0% {
                fill: transparent;
                stroke-opacity: 0;
            }

            30% {
                fill: #FFCA47;
                stroke-opacity: 1;
            }
        }

        @keyframes fade-green-ids {
            0% {
                fill: transparent;
                stroke-opacity: 0;
            }

            30% {
                fill: #F4A321;
                stroke-opacity: 1;
            }
        }

        @keyframes fade-yellow-ids {
            0% {
                fill: transparent;
                stroke-opacity: 0;
            }

            30% {
                fill: #EC7900;
                stroke-opacity: 1;
            }
        }

        @keyframes fade-blue-hospiperf {
            0% {
                fill: transparent;
                stroke-opacity: 0;
            }

            30% {
                fill: #65BF85;
                stroke-opacity: 1;
            }
        }

        @keyframes fade-green-hospiperf {
            0% {
                fill: transparent;
                stroke-opacity: 0;
            }

            30% {
                fill: #39B54A;
                stroke-opacity: 1;
            }
        }

        @keyframes fade-yellow-hospiperf {
            0% {
                fill: transparent;
                stroke-opacity: 0;
            }

            30% {
                fill: #428C47;
                stroke-opacity: 1;
            }
        }

        .bordered path {
            stroke: white;
            stroke-width: 2px;
            stroke-linejoin: round;
        }

        .gstyle { display: none; }
        .g .gstyle { display: unset; }
        .g .not-gstyle { display: none; }

        .anim path {
            animation-duration: 4.7s;
            animation-iteration-count: infinite;
            animation-timing-function: ease-in-out;
        }

        .anim.g path {
            animation-duration: 6.7s;
        }

        .anim .blue path, .anim.gpsih .blue path { animation-name: fade-blue-gpsih; }
        .anim.hospivision .blue path { animation-name: fade-blue-hospivision; }
        .anim.ids .blue path { animation-name: fade-blue-ids; }
        .anim.hospiperf .blue path { animation-name: fade-blue-hospiperf; }
        .anim .gstyle > .blue path:nth-of-type(1) { animation-delay: 0s; }
        .anim .gstyle > .blue path:nth-of-type(2) { animation-delay: .25s; }
        .anim .gstyle > .blue path:nth-of-type(3) { animation-delay: .5s; }
        .anim .gstyle > .blue path:nth-of-type(4) { animation-delay: .75s; }
        .anim .gstyle > .blue path:nth-of-type(5) { animation-delay: 1s; }
        .anim .gstyle > .blue path:nth-of-type(6) { animation-delay: 1.3s; }
        .anim .gstyle > .blue path:nth-of-type(7) { animation-delay: 1.6s; }
        .anim .gstyle > .blue path:nth-of-type(8) { animation-delay: 1.9s; }

        .anim > .blue path:nth-of-type(1) { animation-delay: .2s; }  .anim.g > .blue path:nth-of-type(1) { animation-delay: 2.2s; }
        .anim > .blue path:nth-of-type(2) { animation-delay: .5s; }  .anim.g > .blue path:nth-of-type(2) { animation-delay: 2.5s; }
        .anim > .blue path:nth-of-type(3) { animation-delay: .8s; }  .anim.g > .blue path:nth-of-type(3) { animation-delay: 2.8s; }
        .anim > .blue path:nth-of-type(4) { animation-delay: 1.1s; } .anim.g > .blue path:nth-of-type(4) { animation-delay: 3.1s; }
        .anim > .blue .not-gstyle path:nth-of-type(1) { animation-delay: 1.4s; }

        .anim .gstyle > .blue path:nth-of-type(9) { animation-delay: 1.1s; }
        .anim .gstyle > .blue path:nth-of-type(10) { animation-delay: 1.4s; }
        .anim .gstyle > .blue path:nth-of-type(11) { animation-delay: 1.7s; }

        .anim > .blue path:nth-of-type(5) { animation-delay: 0s; }   .anim.g > .blue path:nth-of-type(5) { animation-delay: 2s; }
        .anim > .blue path:nth-of-type(6) { animation-delay: .3s; }  .anim.g > .blue path:nth-of-type(6) { animation-delay: 2.3s; }
        .anim > .blue path:nth-of-type(7) { animation-delay: .6s; }  .anim.g > .blue path:nth-of-type(7) { animation-delay: 2.6s; }
        .anim > .blue path:nth-of-type(8) { animation-delay: .9s; }  .anim.g > .blue path:nth-of-type(8) { animation-delay: 2.9s; }
        .anim > .blue path:nth-of-type(9) { animation-delay: 1.2s; } .anim.g > .blue path:nth-of-type(9) { animation-delay: 3.2s; }
        .anim > .blue .not-gstyle path:nth-of-type(2) { animation-delay: 1.5s; }

        .anim .gstyle > .blue path:nth-of-type(12) { animation-delay: 1.2s; }
        .anim .gstyle > .blue path:nth-of-type(13) { animation-delay: 1.5s; }
        .anim .gstyle > .blue path:nth-of-type(14) { animation-delay: 1.8s; }

        .anim > .blue path:nth-of-type(10) { animation-delay: .1s; }  .anim.g > .blue path:nth-of-type(10) { animation-delay: 2.1s; }
        .anim > .blue path:nth-of-type(11) { animation-delay: .4s; }  .anim.g > .blue path:nth-of-type(11) { animation-delay: 2.4s; }
        .anim > .blue path:nth-of-type(12) { animation-delay: .7s; }  .anim.g > .blue path:nth-of-type(12) { animation-delay: 2.7s; }
        .anim > .blue path:nth-of-type(13) { animation-delay: 1s; }   .anim.g > .blue path:nth-of-type(13) { animation-delay: 3s; }
        .anim > .blue path:nth-of-type(14) { animation-delay: 1.3s; } .anim.g > .blue path:nth-of-type(14) { animation-delay: 3.3s; }
        .anim > .blue .not-gstyle path:nth-of-type(3) { animation-delay: 1.6s; }

        .anim .green path, .anim.gpsih .green path { animation-name: fade-green-gpsih; }
        .anim.hospivision .green path { animation-name: fade-green-hospivision; }
        .anim.ids .green path { animation-name: fade-green-ids; }
        .anim.hospiperf .green path { animation-name: fade-green-hospiperf; }
        .anim .gstyle > .green path:nth-of-type(1) { animation-delay: 3.4s; }

        .anim > .green path:nth-of-type(1) { animation-delay: 1.7s; } .anim.g > .green path:nth-of-type(1) { animation-delay: 3.7s; }
        .anim > .green path:nth-of-type(2) { animation-delay: 2s; }   .anim.g > .green path:nth-of-type(2) { animation-delay: 4s; }
        .anim > .green path:nth-of-type(3) { animation-delay: 2.3s; } .anim.g > .green path:nth-of-type(3) { animation-delay: 4.3s; }
        .anim > .green path:nth-of-type(4) { animation-delay: 2.6s; } .anim.g > .green path:nth-of-type(4) { animation-delay: 4.6s; }
        .anim > .green path:nth-of-type(5) { animation-delay: 2.9s; } .anim.g > .green path:nth-of-type(5) { animation-delay: 4.9s; }
        .anim > .green path:nth-of-type(6) { animation-delay: 3.2s; } .anim.g > .green path:nth-of-type(6) { animation-delay: 5.2s; }

        .anim .gstyle > .green path:nth-of-type(2) { animation-delay: 3.5s; }

        .anim > .green path:nth-of-type(7) { animation-delay: 1.8s; }  .anim.g > .green path:nth-of-type(7) { animation-delay: 3.8s; }
        .anim > .green path:nth-of-type(8) { animation-delay: 2.1s; }  .anim.g > .green path:nth-of-type(8) { animation-delay: 4.1s; }
        .anim > .green path:nth-of-type(9) { animation-delay: 2.4s; }  .anim.g > .green path:nth-of-type(9) { animation-delay: 4.4s; }
        .anim > .green path:nth-of-type(10) { animation-delay: 2.7s; } .anim.g > .green path:nth-of-type(10) { animation-delay: 4.7s; }
        .anim > .green path:nth-of-type(11) { animation-delay: 3s; }   .anim.g > .green path:nth-of-type(11) { animation-delay: 5s; }

        .anim .gstyle > .green path:nth-of-type(3) { animation-delay: 3.6s; }

        .anim > .green path:nth-of-type(12) { animation-delay: 1.9s; } .anim.g > .green path:nth-of-type(12) { animation-delay: 3.9s; }
        .anim > .green path:nth-of-type(13) { animation-delay: 2.2s; } .anim.g > .green path:nth-of-type(13) { animation-delay: 4.2s; }
        .anim > .green path:nth-of-type(14) { animation-delay: 2.5s; } .anim.g > .green path:nth-of-type(14) { animation-delay: 4.5s; }
        .anim > .green path:nth-of-type(15) { animation-delay: 2.8s; } .anim.g > .green path:nth-of-type(15) { animation-delay: 4.8s; }

        .anim .yellow path, .anim.gpsih .yellow path { animation-name: fade-yellow-gpsih; }
        .anim.hospivision .yellow path { animation-name: fade-yellow-hospivision; }
        .anim.ids .yellow path { animation-name: fade-yellow-ids; }
        .anim.hospiperf .yellow path { animation-name: fade-yellow-hospiperf; }
        .anim > .yellow path:nth-of-type(1) { animation-delay: 3.5s; } .anim.g > .yellow path:nth-of-type(1) { animation-delay: 5.5s; }
        .anim > .yellow path:nth-of-type(2) { animation-delay: 3.8s; } .anim.g > .yellow path:nth-of-type(2) { animation-delay: 5.8s; }
        .anim > .yellow path:nth-of-type(3) { animation-delay: 4.1s; } .anim.g > .yellow path:nth-of-type(3) { animation-delay: 6.1s; }
        .anim > .yellow path:nth-of-type(4) { animation-delay: 4.4s; } .anim.g > .yellow path:nth-of-type(4) { animation-delay: 6.4s; }
        .anim > .yellow path:nth-of-type(5) { animation-delay: 4.7s; } .anim.g > .yellow path:nth-of-type(5) { animation-delay: 6.7s; }

        .anim > .yellow path:nth-of-type(6) { animation-delay: 3.3s; }  .anim.g > .yellow path:nth-of-type(6) { animation-delay: 5.3s; }
        .anim > .yellow path:nth-of-type(7) { animation-delay: 3.6s; }  .anim.g > .yellow path:nth-of-type(7) { animation-delay: 5.6s; }
        .anim > .yellow path:nth-of-type(8) { animation-delay: 3.9s; }  .anim.g > .yellow path:nth-of-type(8) { animation-delay: 5.9s; }
        .anim > .yellow path:nth-of-type(9) { animation-delay: 4.2s; }  .anim.g > .yellow path:nth-of-type(9) { animation-delay: 6.2s; }
        .anim > .yellow path:nth-of-type(10) { animation-delay: 4.5s; } .anim.g > .yellow path:nth-of-type(10) { animation-delay: 6.5s; }
        .anim > .yellow path:nth-of-type(11) { animation-delay: 4.8s; } .anim.g > .yellow path:nth-of-type(11) { animation-delay: 6.8s; }

        .anim > .yellow path:nth-of-type(12) { animation-delay: 3.1s; } .anim.g > .yellow path:nth-of-type(12) { animation-delay: 5.1s; }
        .anim > .yellow path:nth-of-type(13) { animation-delay: 3.4s; } .anim.g > .yellow path:nth-of-type(13) { animation-delay: 5.4s; }
        .anim > .yellow path:nth-of-type(14) { animation-delay: 3.7s; } .anim.g > .yellow path:nth-of-type(14) { animation-delay: 5.7s; }
        .anim > .yellow path:nth-of-type(15) { animation-delay: 4s; }   .anim.g > .yellow path:nth-of-type(15) { animation-delay: 6s; }
        .anim > .yellow path:nth-of-type(16) { animation-delay: 4.3s; } .anim.g > .yellow path:nth-of-type(16) { animation-delay: 6.3s; }
        .anim > .yellow path:nth-of-type(17) { animation-delay: 4.6s; } .anim.g > .yellow path:nth-of-type(17) { animation-delay: 6.6s; }
    </style>
    <g class="blue">
        <path class="big" d="M311,365.1c3.9,8.4,0.2,18.4-8.2,22.2c-8.4,3.9-18.4,0.2-22.2-8.2s-0.2-18.4,8.2-22.2
            C297.2,353,307.2,356.7,311,365.1z"></path>
        <path class="big" d="M271.3,381.9c1.5,9.1-4.8,17.7-13.9,19.2s-17.7-4.8-19.2-13.9s4.8-17.7,13.9-19.2
            C261.3,366.5,269.9,372.7,271.3,381.9z"></path>
        <path class="big" d="M228.5,387.3c-1.1,9.2-9.4,15.8-18.6,14.7c-9.2-1.1-15.8-9.4-14.7-18.6s9.4-15.8,18.6-14.7
            C223,369.8,229.6,378.2,228.5,387.3z"></path>
        <path class="big" d="M185.8,381.1c-3.5,8.6-13.3,12.7-21.9,9.2s-12.7-13.3-9.2-21.9s13.3-12.7,21.9-9.2S189.3,372.5,185.8,381.1z"></path>

        <path class="medium" d="M342.8,388.2c2.9,4.5,1.5,10.5-3,13.3c-4.5,2.9-10.5,1.5-13.3-3c-2.9-4.5-1.5-10.5,3-13.3
            C334,382.4,340,383.7,342.8,388.2z"></path>
        <path class="medium" d="M295.7,412.8c1.5,5.1-1.3,10.5-6.4,12s-10.5-1.3-12-6.4s1.3-10.5,6.4-12C288.8,404.8,294.2,407.7,295.7,412.8z
            "></path>
        <path class="medium" d="M243.7,423.7c0.1,5.3-4.1,9.7-9.4,9.8c-5.3,0.1-9.7-4.1-9.8-9.4s4.1-9.7,9.4-9.8
            C239.2,414.1,243.6,418.3,243.7,423.7z"></path>
        <path class="medium" d="M190.6,420.1c-1.3,5.2-6.6,8.3-11.7,6.9c-5.2-1.3-8.3-6.6-6.9-11.7c1.3-5.2,6.6-8.3,11.7-6.9
            C188.9,409.7,192,415,190.6,420.1z"></path>
        <path class="medium" d="M140.5,402.4c-2.7,4.6-8.6,6.2-13.2,3.5c-4.6-2.7-6.2-8.6-3.5-13.2s8.6-6.2,13.2-3.5
            C141.6,391.9,143.2,397.8,140.5,402.4z"></path>

        <path class="tiny" d="M327.2,423.8c1.6,3.5,0.1,7.6-3.4,9.2s-7.6,0.1-9.2-3.4s-0.1-7.6,3.4-9.2S325.6,420.3,327.2,423.8z"></path>
        <path class="tiny" d="M271,442.8c0.6,3.8-2,7.3-5.8,7.9s-7.3-2-7.9-5.8s2-7.3,5.8-7.9S270.4,439,271,442.8z"></path>
        <path class="tiny" d="M211.8,445.9c-0.4,3.8-3.9,6.5-7.7,6.1s-6.5-3.9-6.1-7.7c0.4-3.8,3.9-6.5,7.7-6.1
            C209.5,438.7,212.3,442.1,211.8,445.9z"></path>
        <path class="tiny" d="M154,433c-1.4,3.5-5.5,5.2-9,3.8c-3.5-1.4-5.2-5.5-3.8-9s5.5-5.2,9-3.8C153.7,425.4,155.4,429.4,154,433z"></path>
        <path class="tiny" d="M101.7,404.9c-2.4,3-6.7,3.6-9.7,1.2s-3.6-6.7-1.2-9.7s6.7-3.6,9.7-1.2C103.5,397.5,104.1,401.8,101.7,404.9z"></path>

        <g class="not-gstyle">
            <path class="big" d="M146.4,363.5c-5.7,7.3-16.2,8.6-23.5,2.9s-8.6-16.2-2.9-23.5s16.2-8.6,23.5-2.9S152.1,356.2,146.4,363.5z"></path>
            <path class="medium" d="M97.1,371.8c-3.8,3.7-9.9,3.6-13.6-0.2c-3.7-3.8-3.6-9.9,0.2-13.6s9.9-3.6,13.6,0.2
                C101,362,100.9,368.1,97.1,371.8z"></path>
            <path class="tiny" d="M59,363.7c-3.1,2.3-7.4,1.6-9.7-1.5s-1.6-7.4,1.5-9.7c3.1-2.3,7.4-1.6,9.7,1.5S62.1,361.4,59,363.7z"></path>
        </g>
    </g>
    <g class="green">
        <path class="big" d="M113.2,335.9c-7.4,5.5-17.9,3.9-23.4-3.5s-3.9-17.9,3.5-23.4s17.9-3.9,23.4,3.5
            C122.3,320,120.7,330.5,113.2,335.9z"></path>
        <path class="big" d="M88.7,300.5c-8.7,3.3-18.3-1.1-21.6-9.7c-3.3-8.7,1.1-18.3,9.7-21.6c8.7-3.3,18.3,1.1,21.6,9.7
            S97.4,297.2,88.7,300.5z"></path>
        <path class="big" d="M74.7,259.7c-9.2,0.8-17.4-6-18.2-15.2s6-17.4,15.2-18.2s17.4,6,18.2,15.2C90.7,250.7,83.9,258.9,74.7,259.7z"></path>
        <path class="big" d="M72.1,216.6c-9.1-1.7-15.1-10.4-13.4-19.5c1.7-9.1,10.4-15.1,19.5-13.4c9.1,1.7,15.1,10.4,13.4,19.5
            C90,212.3,81.2,218.3,72.1,216.6z"></path>
        <path class="big" d="M81.3,174.5c-8.3-4.1-11.7-14.1-7.6-22.4c4.1-8.3,14.1-11.7,22.4-7.6c8.3,4.1,11.7,14.1,7.6,22.4
            C99.7,175.1,89.6,178.6,81.3,174.5z"></path>
        <path class="big" d="M101.5,136.4c-6.9-6.2-7.5-16.8-1.3-23.7c6.2-6.9,16.8-7.5,23.7-1.3s7.5,16.8,1.3,23.7
            C119,141.9,108.4,142.5,101.5,136.4z"></path>

        <path class="medium" d="M63.5,330.7c-4.7,2.5-10.5,0.8-13.1-3.9c-2.5-4.7-0.8-10.5,3.9-13.1c4.7-2.5,10.5-0.8,13.1,3.9
            C69.9,322.3,68.1,328.1,63.5,330.7z"></path>
        <path class="medium" d="M42.2,281.9c-5.2,1.2-10.4-2.1-11.6-7.2c-1.2-5.2,2.1-10.4,7.2-11.6c5.2-1.2,10.4,2.1,11.6,7.2
            C50.6,275.6,47.4,280.8,42.2,281.9z"></path>
        <path class="medium" d="M34.9,229.3c-5.3-0.3-9.4-4.8-9.2-10.1c0.3-5.3,4.8-9.4,10.1-9.2c5.3,0.3,9.4,4.8,9.2,10.1
            C44.7,225.5,40.2,229.6,34.9,229.3z"></path>
        <path class="medium" d="M42,176.6c-5.1-1.7-7.8-7.1-6.1-12.2c1.7-5.1,7.1-7.8,12.2-6.1s7.8,7.1,6.1,12.2
            C52.5,175.6,47.1,178.3,42,176.6z"></path>
        <path class="medium" d="M63.1,127.9c-4.4-3-5.6-9-2.6-13.4s9-5.6,13.4-2.6s5.6,9,2.6,13.4C73.5,129.7,67.5,130.8,63.1,127.9z"></path>

        <path class="tiny" d="M29,312.6c-3.6,1.4-7.6-0.4-8.9-4c-1.4-3.6,0.4-7.6,4-8.9c3.6-1.4,7.6,0.4,8.9,4
            C34.4,307.2,32.6,311.2,29,312.6z"></path>
        <path class="tiny" d="M13.9,255.2c-3.8,0.3-7.2-2.5-7.5-6.3s2.5-7.2,6.3-7.5s7.2,2.5,7.5,6.3S17.7,254.9,13.9,255.2z"></path>
        <path class="tiny" d="M14.8,196c-3.8-0.7-6.2-4.3-5.5-8.1s4.3-6.2,8.1-5.5s6.2,4.3,5.5,8.1C22.2,194.2,18.6,196.7,14.8,196z"></path>
        <path class="tiny" d="M31.7,139.1c-3.4-1.7-4.8-5.8-3.2-9.3c1.7-3.4,5.8-4.8,9.3-3.2c3.4,1.7,4.8,5.8,3.2,9.3
            C39.3,139.4,35.1,140.8,31.7,139.1z"></path>
    </g>
    <g class="yellow">
        <path class="big" d="M131.3,105.1c-5-7.8-2.7-18.2,5.1-23.1c7.8-5,18.2-2.7,23.1,5.1c5,7.8,2.7,18.2-5.1,23.1
            S136.2,112.9,131.3,105.1z"></path>
        <path class="big" d="M168.3,83.1c-2.7-8.9,2.3-18.2,11.2-20.9s18.2,2.3,20.9,11.2s-2.3,18.2-11.2,20.9
            C180.4,96.9,171,91.9,168.3,83.1z"></path>
        <path class="big" d="M210,71.8c-0.2-9.3,7.2-16.9,16.4-17.1c9.3-0.2,16.9,7.1,17.1,16.4s-7.2,16.9-16.4,17.1
            C217.8,88.4,210.2,81.1,210,71.8z"></path>
        <path class="big" d="M253.1,72.2c2.3-9,11.4-14.4,20.4-12s14.4,11.4,12,20.8s-11.4,14.4-20.4,12C256.2,90.3,250.8,81.2,253.1,72.2z
            "></path>
        <path class="big" d="M294.6,84.3c4.6-8,14.9-10.7,22.9-6.1s10.7,14.9,6.1,22.9s-14.9,10.7-22.9,6.1
            C292.6,102.5,289.9,92.3,294.6,84.3z"></path>

        <path class="medium" d="M96.5,86.6c-3.4-4.1-2.9-10.1,1.1-13.6c4.1-3.4,10.1-2.9,13.6,1.1c3.4,4.1,2.9,10.1-1.1,13.6
            C106.1,91.1,100,90.6,96.5,86.6z"></path>
        <path class="medium" d="M139.9,55.8c-2.2-4.8-0.1-10.6,4.7-12.8c4.8-2.2,10.6-0.1,12.8,4.7s0.1,10.6-4.7,12.8
            C147.9,62.8,142.1,60.7,139.9,55.8z"></path>
        <path class="medium" d="M189.9,37.9c-0.8-5.3,2.8-10.2,8-11c5.3-0.8,10.2,2.8,11,8c0.8,5.3-2.8,10.2-8,11
            C195.7,46.8,190.8,43.2,189.9,37.9z"></path>
        <path class="medium" d="M243,34.2c0.6-5.3,5.4-9.1,10.7-8.5s9.1,5.4,8.5,10.7s-5.4,9.1-10.7,8.5C246.1,44.3,242.3,39.5,243,34.2z"></path>
        <path class="medium" d="M295.2,45c2-4.9,7.7-7.3,12.6-5.3s7.3,7.7,5.3,12.6s-7.7,7.3-12.6,5.3C295.5,55.5,293.2,49.9,295.2,45z"></path>
        <path class="medium" d="M342.4,69.4c3.3-4.2,9.3-4.9,13.5-1.7c4.2,3.3,4.9,9.3,1.7,13.5c-3.3,4.2-9.3,4.9-13.5,1.7
            C339.9,79.6,339.1,73.6,342.4,69.4z"></path>

        <path class="tiny" d="M63.3,88.9c-2.8-2.6-3.1-6.9-0.5-9.8c2.6-2.8,6.9-3.1,9.8-0.5c2.8,2.6,3.1,6.9,0.5,9.8
            C70.5,91.2,66.2,91.5,63.3,88.9z"></path>
        <path class="tiny" d="M107.3,49.1c-2.1-3.2-1.1-7.5,2.1-9.6s7.5-1.1,9.6,2.1c2.1,3.2,1.1,7.5-2.1,9.6
            C113.6,53.3,109.3,52.4,107.3,49.1z"></path>
        <path class="tiny" d="M160.3,22.7c-1.1-3.7,1-7.5,4.6-8.6c3.7-1.1,7.5,1,8.6,4.6c1.1,3.7-1,7.5-4.6,8.6
            C165.3,28.4,161.4,26.3,160.3,22.7z"></path>
        <path class="tiny" d="M218.6,11.5c-0.1-3.8,3-7,6.8-7.1s7,3,7.1,6.8s-3,7-6.8,7.1C221.8,18.4,218.6,15.4,218.6,11.5z"></path>
        <path class="tiny" d="M277.7,16.5c1-3.7,4.7-5.9,8.4-5c3.7,1,5.9,4.7,5,8.4c-1,3.7-4.7,5.9-8.4,5C278.9,24,276.7,20.2,277.7,16.5z"></path>
        <path class="tiny" d="M333.2,37.2c1.9-3.3,6.2-4.4,9.5-2.5s4.4,6.2,2.5,9.5s-6.2,4.4-9.5,2.5C332.4,44.8,331.3,40.5,333.2,37.2z"></path>
    </g>
    <g class="gstyle">
        <g class="blue">
            <path class="big" d="M221.2,218.7c9.4,0.6,16.5,8.7,15.9,18c-0.6,9.4-8.7,16.5-18,15.9c-9.4-0.6-16.5-8.7-15.9-18   C203.7,225.2,211.8,218.1,221.2,218.7z"/>
            <path class="big" d="M264.5,218.7c9.4,0.6,16.5,8.7,15.9,18s-8.7,16.5-18,15.9c-9.4-0.6-16.5-8.7-15.9-18   C247,225.2,255.1,218.1,264.5,218.7z"/>
            <path class="big" d="M307.8,219.2c9.4,0.6,16.5,8.7,15.9,18c-0.6,9.4-8.7,16.5-18,15.9c-9.4-0.6-16.5-8.7-15.9-18   C290.3,225.7,298.4,218.6,307.8,219.2z"/>
            <path class="big" d="M351.1,218.7c9.4,0.6,16.5,8.7,15.9,18c-0.6,9.4-8.7,16.5-18,15.9c-9.4-0.6-16.5-8.7-15.9-18   C333.6,225.2,341.7,218.1,351.1,218.7z"/>
            <path class="big" d="M394.4,218.7c9.4,0.6,16.5,8.7,15.9,18s-8.7,16.5-18,15.9c-9.4-0.6-16.5-8.7-15.9-18   C376.9,225.2,385,218.1,394.4,218.7z"/>
            <path class="big" d="M390.2,261.8c8.9,3,13.7,12.6,10.7,21.5c-3,8.9-12.7,13.7-21.5,10.7c-8.9-3-13.7-12.6-10.7-21.5   C371.7,263.5,381.4,258.8,390.2,261.8z"/>
            <path class="big" d="M375.1,302.6c7.7,5.4,9.6,16,4.2,23.7c-5.4,7.7-16,9.6-23.7,4.2c-7.7-5.4-9.6-16-4.2-23.7   C356.8,299.1,367.4,297.3,375.1,302.6z"/>
            <path class="big" d="M348.8,337.2c5.8,7.4,4.5,18.1-2.9,23.9c-7.4,5.8-18.1,4.5-23.9-2.9c-5.8-7.4-4.5-18.1,2.9-23.9   C332.3,328.5,343,329.8,348.8,337.2z"/>

            <path class="medium" d="M429.1,259c5.3,1.1,8.7,6.3,7.6,11.6c-1.1,5.3-6.3,8.7-11.6,7.6c-5.3-1.1-8.7-6.3-7.6-11.6    C418.7,261.3,423.8,257.9,429.1,259z"/>
            <path class="medium" d="M417.3,307.9c4.6,2.9,5.9,8.9,3,13.5c-2.9,4.6-8.9,5.9-13.5,3c-4.6-2.9-5.9-8.9-3-13.5    C406.7,306.3,412.7,305,417.3,307.9z"/>
            <path class="medium" d="M387.2,353c4,3.7,4.2,9.9,0.5,13.8s-9.9,4.2-13.8,0.5c-4-3.7-4.2-9.9-0.5-13.8    C377,349.5,383.2,349.3,387.2,353z"/>

            <path class="tiny" d="M449.5,295.6c1.6,3.5,0.1,7.7-3.4,9.3c-3.5,1.6-7.7,0.1-9.3-3.4c-1.6-3.5-0.1-7.7,3.4-9.3    C443.7,290.5,447.9,292.1,449.5,295.6z"/>
            <path class="tiny" d="M422.8,349.6c1.6,3.5,0.1,7.7-3.4,9.3c-3.5,1.6-7.7,0.1-9.3-3.4c-1.6-3.5-0.1-7.7,3.4-9.3    C417,344.6,421.2,346.1,422.8,349.6z"/>
            <path class="tiny" d="M383.3,395.2c1.6,3.5,0.1,7.7-3.4,9.3c-3.5,1.6-7.7,0.1-9.3-3.4c-1.6-3.5-0.1-7.7,3.4-9.3    C377.5,390.1,381.6,391.7,383.3,395.2z"/>
        </g>

        <g class="green">
            <path class="big" d="M146.4,363.5c-5.7,7.3-16.2,8.6-23.5,2.9s-8.6-16.2-2.9-23.5s16.2-8.6,23.5-2.9S152.1,356.2,146.4,363.5z"></path>

            <path class="medium" d="M97.1,371.8c-3.8,3.7-9.9,3.6-13.6-0.2c-3.7-3.8-3.6-9.9,0.2-13.6s9.9-3.6,13.6,0.2
                C101,362,100.9,368.1,97.1,371.8z"></path>

            <path class="tiny" d="M59,363.7c-3.1,2.3-7.4,1.6-9.7-1.5s-1.6-7.4,1.5-9.7c3.1-2.3,7.4-1.6,9.7,1.5S62.1,361.4,59,363.7z"></path>
        </g>
    </g>
</svg>